<svg id="0aed7189-846b-42be-8a3c-16df063f151e" data-name="Layer 1" xmlns="http://www.w3.org/2000/svg" xmlns:xlink="http://www.w3.org/1999/xlink" viewBox="0 0 217 38">
  <defs>
    <linearGradient id="c950fc20-5891-4af3-a874-c16ca4ad48cc" x1="638.2" y1="792.89" x2="636.55" y2="795.76" gradientTransform="matrix(9.8, 0, 0, -9.8, -6225.92, 7806.28)" gradientUnits="userSpaceOnUse">
      <stop offset="0" stop-color="#ffc10e"/>
      <stop offset="1" stop-color="#ffe96b"/>
    </linearGradient>
    <linearGradient id="8339f2a8-aee5-4d6e-88d4-7e4661f2a28f" x1="638.74" y1="793.95" x2="637.09" y2="796.81" xlink:href="#c950fc20-5891-4af3-a874-c16ca4ad48cc"/>
  </defs>
  <title>Hustler Logo</title>
  <path id="d9a86164-0c5c-444f-82f3-3f7b431d9289" data-name=" Path " d="M46,26.72A11.23,11.23,0,0,1,34.45,38H11.28A11.33,11.33,0,0,1,0,26.72V11.28A11.24,11.24,0,0,1,11.28,0H34.69A11.33,11.33,0,0,1,46,11.28Z" fill="#3b3b3c"/>
  <path d="M62.76,21.08v6a.12.12,0,0,1-.12.12H54.8a.12.12,0,0,1-.13-.12v-11a1,1,0,0,0-1-1h-.86a.12.12,0,0,1-.12-.13v-3.8a.12.12,0,0,1,.12-.12h9.93a.13.13,0,0,1,.13.12V17h6V11A.13.13,0,0,1,69,10.9h7.72a.13.13,0,0,1,.12.13v11a1.05,1.05,0,0,0,1,1h.86a.12.12,0,0,1,.12.13V27a.12.12,0,0,1-.12.12H68.77a.12.12,0,0,1-.13-.12V21.09H62.76Z" fill="#3b3b3c"/>
  <path d="M94.51,15h-.86a.12.12,0,0,1-.12-.12V11a.12.12,0,0,1,.12-.12h9.93a.12.12,0,0,1,.12.12v11a1.06,1.06,0,0,0,1,1h.86a.12.12,0,0,1,.13.12V27a.13.13,0,0,1-.13.13h-19c-3.31,0-6.13-2.21-6.13-5V11a.13.13,0,0,1,.13-.13h7.84a.13.13,0,0,1,.13.13v11a1.05,1.05,0,0,0,1,1h6V15.94a1,1,0,0,0-.95-1Z" fill="#3b3b3c"/>
  <path d="M108,23.17h0L119.27,23a1,1,0,1,0,0-2h-6c-3.31,0-6.13-2.21-6.13-5s2.69-5,6.13-5h13.11a.13.13,0,0,1,.13.12V15a.13.13,0,0,1-.13.13h-9.19a1,1,0,0,0-1,1,1,1,0,0,0,1,1h6c3.31,0,6.13,2.21,6.13,5s-2.7,5-6.13,5H108.12A.12.12,0,0,1,108,27v-3.8Z" fill="#3b3b3c"/>
  <path d="M151.63,15h-.86a.12.12,0,0,1-.12-.12V11a.12.12,0,0,1,.12-.12h9.93a.12.12,0,0,1,.13.12v11a1.06,1.06,0,0,0,1,1h5.51a.12.12,0,0,1,.13.12V27a.13.13,0,0,1-.13.13h-8.58c-3.31,0-6.13-2.21-6.13-5v-6a1,1,0,0,0-1-1.12Z" fill="#3b3b3c"/>
  <path d="M201.52,22.92v4.17a.13.13,0,0,1-.13.13h-7.84a.13.13,0,0,1-.13-.13v-11a1.05,1.05,0,0,0-1-1h-.86a.12.12,0,0,1-.12-.13v-3.8a.12.12,0,0,1,.12-.12h19.13c3.31,0,6.12,2.21,6.12,5a5.18,5.18,0,0,1-3.06,4.41v1.72a1.07,1.07,0,0,0,1,1h1.84a.12.12,0,0,1,.12.12v3.8a.12.12,0,0,1-.12.13h-5c-3.31,0-6.13-2.21-6.13-5v-1h-1.83a.13.13,0,0,1-.13-.13v-3.8a.12.12,0,0,1,.13-.12h3.92a1.07,1.07,0,0,0,1-1,1.05,1.05,0,0,0-1-1h-6v7.72Z" fill="#3b3b3c"/>
  <path d="M141.7,15h0c-.13.86-.13,7.11-.13,7.11a1.06,1.06,0,0,0,1,1h6.13a.12.12,0,0,1,.13.12V27a.13.13,0,0,1-.13.13h-9.19c-3.31,0-6.13-2.21-6.13-5v-6a1.06,1.06,0,0,0-1-1H129a.12.12,0,0,1-.13-.12V11.15A.13.13,0,0,1,129,11h19.5a.13.13,0,0,1,.12.12V15a.13.13,0,0,1-.12.13Z" fill="#3b3b3c"/>
  <path d="M178,23.05h11.53a.12.12,0,0,1,.12.12V27a.12.12,0,0,1-.12.13H174.92c-3.31,0-6-2.21-6.13-4.91V15.94a1.08,1.08,0,0,0-1.1-1h-.86a.12.12,0,0,1-.12-.13V11a.12.12,0,0,1,.12-.12h22.68a.12.12,0,0,1,.12.12v3.8a.12.12,0,0,1-.12.13H176.88v2h10.55a.12.12,0,0,1,.12.12v3.8a.13.13,0,0,1-.12.13H176.88v1a1.11,1.11,0,0,0,1.1,1.1h0Z" fill="#3b3b3c"/>
  <path id="06e62505-674a-4cff-a306-615b123257a9" data-name=" Path 2" d="M26.48,25.74a.25.25,0,0,0,.25.25H41.06c.13,0,.25.13.25.37-.36,2.7-3.18,4.78-6,4.78H10.79A6.14,6.14,0,0,1,4.67,25V12.5a.26.26,0,0,1,.25-.25H9.07a1.1,1.1,0,0,1,1.1,1.1h0V24.51a1.63,1.63,0,0,0,1.6,1.6h7.48a.28.28,0,0,0,.25-.25V19.48a.26.26,0,0,1,.25-.25h6.37a.26.26,0,0,1,.25.25Z" fill="url(#c950fc20-5891-4af3-a874-c16ca4ad48cc)"/>
  <path id="42dc6c1a-b318-4349-9622-9bbf9b789c54" data-name=" Path 3" d="M19.61,7.72a.26.26,0,0,0-.25-.25H5c-.13,0-.25-.12-.25-.37.36-2.69,3.18-4.78,6-4.78H35.17A6.15,6.15,0,0,1,41.3,8.45V21a.27.27,0,0,1-.25.25H36.9a1.11,1.11,0,0,1-1.11-1.09h0V9a1.54,1.54,0,0,0-1.59-1.6H26.72a.28.28,0,0,0-.25.26V14a.25.25,0,0,1-.25.25H19.84a.26.26,0,0,1-.25-.25V7.73h0Z" fill="url(#8339f2a8-aee5-4d6e-88d4-7e4661f2a28f)"/>
</svg>
