<svg id="b9538cd4-f47e-4ab4-b60a-7d041082a5f7" data-name="Toolbox" xmlns="http://www.w3.org/2000/svg" xmlns:xlink="http://www.w3.org/1999/xlink" viewBox="0 0 207 37">
  <defs>
    <linearGradient id="fdf9df56-edc1-4b7f-8544-423b873fd2f8" x1="27.64" y1="34.55" x2="12.25" y2="7.88" gradientUnits="userSpaceOnUse">
      <stop offset="0" stop-color="#ffc20e"/>
      <stop offset="1" stop-color="#ffe96b"/>
    </linearGradient>
    <linearGradient id="3d2f160d-da3d-4224-974c-e08315385e62" x1="32.53" y1="24.77" x2="17.14" y2="-1.89" xlink:href="#fdf9df56-edc1-4b7f-8544-423b873fd2f8"/>
  </defs>
  <title>Hustler Logo</title>
  <path d="M60.31,20.43v5.66a.12.12,0,0,1-.1.09h-7.5a.14.14,0,0,1-.14-.14l0-10.42a.94.94,0,0,0-.94-.93h-.84a.14.14,0,0,1-.14-.15V10.91a.12.12,0,0,1,.1-.09h9.42a.14.14,0,0,1,.15.14v5.53H66V10.91a.11.11,0,0,1,.09-.09h7.5a.14.14,0,0,1,.14.14V21.38a1,1,0,0,0,1,.93h.84a.14.14,0,0,1,.14.15v3.63a.12.12,0,0,1-.1.09H66.19A.15.15,0,0,1,66,26V20.43Z" fill="#fff" fill-rule="evenodd"/>
  <path d="M90.59,14.69h-.84a.14.14,0,0,1-.15-.15V10.91a.11.11,0,0,1,.09-.09h9.43a.14.14,0,0,1,.14.14l0,10.42a.94.94,0,0,0,.94.93h.84a.14.14,0,0,1,.14.15v3.63a.12.12,0,0,1-.1.09H82.9c-3.2,0-5.8-2.14-5.8-4.81l0-10.46a.12.12,0,0,1,.1-.09h7.5a.14.14,0,0,1,.14.14V21.38a1,1,0,0,0,1,.93h5.71V15.62A.91.91,0,0,0,90.59,14.69Z" fill="#fff" fill-rule="evenodd"/>
  <path d="M103.34,22.41a.12.12,0,0,1,.09-.1h10.66a.94.94,0,0,0,0-1.88h-5.77c-3.2,0-5.81-2.14-5.81-4.81s2.59-4.8,5.79-4.8h12.55A.14.14,0,0,1,121,11v3.63a.12.12,0,0,1-.09.1h-8.75a.94.94,0,1,0,0,1.88h5.78c3.2,0,5.8,2.14,5.8,4.81s-2.58,4.8-5.78,4.8H103.49a.14.14,0,0,1-.15-.14Z" fill="#fff" fill-rule="evenodd"/>
  <path d="M145,14.69h-.84a.15.15,0,0,1-.15-.15V10.91a.12.12,0,0,1,.1-.09h9.42a.14.14,0,0,1,.14.14l0,10.42a.94.94,0,0,0,.94.93h5.21a.14.14,0,0,1,.14.15v3.63a.12.12,0,0,1-.1.09h-8.14c-3.2,0-5.8-2.14-5.8-4.81V15.62A.94.94,0,0,0,145,14.69Z" fill="#fff" fill-rule="evenodd"/>
  <path d="M192.55,22.16v3.93a.1.1,0,0,1-.08.09H185a.14.14,0,0,1-.15-.14V15.62a.94.94,0,0,0-.94-.93H183a.14.14,0,0,1-.15-.15V10.91a.11.11,0,0,1,.09-.09h18.21c3.2,0,5.81,2.14,5.81,4.81a4.81,4.81,0,0,1-2.88,4.14v1.61a.94.94,0,0,0,.94.93h1.8a.14.14,0,0,1,.15.15v3.63a.11.11,0,0,1-.09.09h-4.74c-3.2,0-5.8-2.14-5.8-4.81v-.94h-1.73a.14.14,0,0,1-.15-.14V16.66a.11.11,0,0,1,.09-.09h3.71a1,1,0,0,0,.95-1,.94.94,0,0,0-.94-.93h-5.76v7.47Z" fill="#fff" fill-rule="evenodd"/>
  <path d="M135.48,14.68a.09.09,0,0,0-.1,0c0,.85,0,6.71,0,6.71a.94.94,0,0,0,.94.93h5.83a.14.14,0,0,1,.15.15v3.63a.11.11,0,0,1-.09.09h-8.76c-3.2,0-5.8-2.14-5.81-4.81V15.62a.94.94,0,0,0-.94-.93h-3.26a.15.15,0,0,1-.15-.15V10.91a.11.11,0,0,1,.09-.09H142a.14.14,0,0,1,.15.14v3.63a.12.12,0,0,1-.09.1Z" fill="#fff" fill-rule="evenodd"/>
  <path d="M170,22.31h11a.14.14,0,0,1,.14.15v3.63a.12.12,0,0,1-.1.09h-14c-3.13,0-5.69-2-5.8-4.63V15.62a1,1,0,0,0-1-.93h-.84a.14.14,0,0,1-.15-.15V10.91a.11.11,0,0,1,.09-.09h21.59a.14.14,0,0,1,.15.14v3.63a.12.12,0,0,1-.09.1H169.06v1.87h10.07a.13.13,0,0,1,.15.14v3.58a.13.13,0,0,1-.13.14H169.06v.89A1,1,0,0,0,170,22.31Z" fill="#fff" fill-rule="evenodd"/>
  <path d="M33.28,37h-22A11.26,11.26,0,0,1,0,25.8V11.2A11.24,11.24,0,0,1,11.26,0H33.52A11.25,11.25,0,0,1,44.78,11.2V25.79A11.23,11.23,0,0,1,33.28,37Zm.24-36H11.26A10.26,10.26,0,0,0,1,11.2V25.79A10.27,10.27,0,0,0,11.26,36h22A10.24,10.24,0,0,0,43.77,25.79V11.2A10.26,10.26,0,0,0,33.52,1Z" fill="#ffc425"/>
  <path d="M44.27,25.79a10.72,10.72,0,0,1-11,10.71h-22A10.75,10.75,0,0,1,.5,25.79V11.2A10.72,10.72,0,0,1,11.26.5H33.52A10.73,10.73,0,0,1,44.28,11.2Z" fill="#3b3b3c"/>
  <path d="M25.67,24.83a.27.27,0,0,0,.27.26H39.56a.25.25,0,0,1,.26.3,5.79,5.79,0,0,1-5.74,4.5H10.79A5.82,5.82,0,0,1,5,24.08V12.23A.27.27,0,0,1,5.22,12h4A1,1,0,0,1,10.29,13v10.6a1.48,1.48,0,0,0,1.48,1.46h7.09a.27.27,0,0,0,.26-.26V18.79a.27.27,0,0,1,.26-.26h6a.27.27,0,0,1,.26.26Z" fill="url(#fdf9df56-edc1-4b7f-8544-423b873fd2f8)"/>
  <path d="M19.1,7.82a.27.27,0,0,0-.26-.26H5.22A.25.25,0,0,1,5,7.26a5.78,5.78,0,0,1,5.74-4.5H34a5.81,5.81,0,0,1,5.83,5.81V20.42a.27.27,0,0,1-.26.26h-4a1,1,0,0,1-1.08-1.07V9.05A1.47,1.47,0,0,0,33,7.56h-7.1a.26.26,0,0,0-.26.26v6a.26.26,0,0,1-.26.26h-6a.26.26,0,0,1-.26-.26Z" fill="url(#3d2f160d-da3d-4224-974c-e08315385e62)"/>
</svg>
