<svg id="bab9984e-4771-4fbc-8aca-b2fa59c832bf" data-name="a8bbaf59-fe03-46ab-ba7e-0e013d375562" xmlns="http://www.w3.org/2000/svg" viewBox="0 0 260 42"><title>Artboard 1</title><path d="M14.92,14a12.28,12.28,0,0,0-3.69-.73,3.39,3.39,0,0,0-1.84.44A1.39,1.39,0,0,0,8.71,15a1.74,1.74,0,0,0,.59,1.3,4.36,4.36,0,0,0,1.45.86c.58.22,1.43.5,2.56.85a32,32,0,0,1,4.16,1.45,7.22,7.22,0,0,1,2.82,2.23,6.2,6.2,0,0,1,1.18,3.92,6.72,6.72,0,0,1-1.28,4.13,7.78,7.78,0,0,1-3.51,2.58,13.74,13.74,0,0,1-5,.86,18,18,0,0,1-6-1A16.5,16.5,0,0,1,.55,29.24L3,24.3A15.32,15.32,0,0,0,7.35,27a11.73,11.73,0,0,0,4.44,1A4.06,4.06,0,0,0,14,27.48,1.69,1.69,0,0,0,14.83,26a1.78,1.78,0,0,0-.61-1.38,4.15,4.15,0,0,0-1.52-.88c-.61-.22-1.47-.48-2.57-.78A31.54,31.54,0,0,1,6,21.52a7.36,7.36,0,0,1-2.79-2.15,5.88,5.88,0,0,1-1.15-3.82,6.66,6.66,0,0,1,1.19-3.94A7.69,7.69,0,0,1,6.65,9a13.09,13.09,0,0,1,5.1-.91,18.6,18.6,0,0,1,5.19.74,17.22,17.22,0,0,1,4.49,2l-2.38,5A21.46,21.46,0,0,0,14.92,14Z" fill="#fff"/><path d="M24.68,8.57H43.8v5H31V18.1H42.55v5L31,23.19v4.57H44.14v5H24.68Z" fill="#fff"/><path d="M65.81,32.8l-1.66-4.28H53.68L52,32.8H45.5L55.89,8.57h6.5L72.55,32.8ZM55.58,23.68h6.71L59,15Z" fill="#fff"/><path d="M70.41,8.57h6.81l6,17.53L89.35,8.57h6.5L86.38,32.8H79.81Z" fill="#fff"/><path d="M98.13,8.57h19.11v5H104.46V18.1H116v5H104.46v4.57h13.13v5H98.13Z" fill="#fff"/><path d="M138,8.57h5.87V32.8h-5.53l-11-14.48V32.8h-5.91V8.57H127l11,14.59Z" fill="#fff"/><path d="M146.52,8.57h20.77v5.22H160v19h-6.32v-19h-7.19Z" fill="#fff"/><path d="M177.11,26.48a4.58,4.58,0,0,0,3.42,1.38,4.28,4.28,0,0,0,3.3-1.36,5.23,5.23,0,0,0,1.26-3.69V8.57h6.33V22.81a11.18,11.18,0,0,1-1.33,5.52,9.07,9.07,0,0,1-3.8,3.64,12.35,12.35,0,0,1-5.79,1.28A12.48,12.48,0,0,1,174.67,32a9.12,9.12,0,0,1-3.87-3.64,10.87,10.87,0,0,1-1.36-5.52V8.57h6.32V22.81A5,5,0,0,0,177.11,26.48Z" fill="#fff"/><path d="M210.29,32.8l-3.52-6.7h-4.71v6.7h-6.32V8.57h10.89c3.2,0,5.68.75,7.45,2.23a7.78,7.78,0,0,1,2.64,6.28,9.54,9.54,0,0,1-1.11,4.71,7.67,7.67,0,0,1-3.21,3.1l5,7.91Zm-8.23-11.75h4.6a4.21,4.21,0,0,0,3-1,3.62,3.62,0,0,0,1.06-2.8,3.47,3.47,0,0,0-1.06-2.71,4.32,4.32,0,0,0-3-1h-4.6Z" fill="#fff"/><path d="M220.76,8.57h19.12v5H227.09V18.1h11.54v5H227.09v4.57h13.13v5H220.76Z" fill="#fff"/><path d="M241.58,7.17h7V9.28h-2.24v6.37H243.8V9.28h-2.22Zm7.88,0h2.84l2,4.51,2-4.51h2.85v8.48h-2.32V10.87l-1.67,4H253.4l-1.67-4v4.78h-2.32Z" fill="#fff"/></svg>