<svg width="1200" height="950" viewBox="0 0 1200 950" fill="none" xmlns="http://www.w3.org/2000/svg">
<g clip-path="url(#clip0)">
<path d="M1221 -15H-11V956H1221V-15Z" fill="#FF5715"/>
<path d="M140.582 955.933L441.808 808.398L0 645V418V363.5L570.5 244L1150.47 161.216V983.436L140.582 955.933Z" fill="black"/>
<path d="M361.513 490.448L210.126 436.079L168.991 420.28L360.003 377.744L361.513 490.448Z" fill="#E0E0E0"/>
<path d="M867.73 522.216L611.743 427.529V320.811L358.535 225.45V489.118L168.991 420.281V707.589L867.73 962.816V522.216Z" fill="#A5A5A5"/>
<path d="M489.583 451.778L454.31 440.055V432.117L466.55 435.937L467.092 379.449L454.742 381.953L452.338 374.324L469.068 369.037L477.309 370.301L476.207 438.957L489.806 443.232L489.583 451.778Z" fill="black"/>
<path d="M454.31 440.04L476.293 432.688L476.198 438.958L489.797 443.218L489.583 451.778L454.31 440.04Z" fill="#E0E0E0"/>
<path d="M611.743 320.83L358.535 225.45C763.131 135.765 1067.87 132.972 1220.59 162.275C1221.92 186.025 1221.16 521.294 1220.59 520.149C1220.59 520.135 732.55 330.681 611.743 320.83Z" fill="#E0E0E0"/>
<path d="M611.9 320.83C835.112 257.123 998.128 260.742 1202.63 276.778V984.528H857.76L863.175 533.088L611.9 438.359V320.83Z" fill="black"/>
<path d="M704.112 673.565L658.811 658.427V652.157C658.811 638.918 671.038 633.442 681.051 628.692C687.862 625.428 693.686 622.284 693.819 614.214C693.966 605.569 688.47 600.339 680.267 598.277C672.715 596.377 667.3 598.999 663.386 602.305L658.018 594.287C662.825 589.684 669.755 586.488 681.478 589.295C696.626 592.924 704.882 603.417 704.582 617.078C704.297 630.064 696.645 634.069 688.432 637.265C679.697 640.776 670.14 643.982 668.216 653.107L704.316 664.777L704.112 673.565Z" fill="black"/>
<path d="M658.812 658.427L673.945 654.95L704.307 664.782L704.112 673.565L658.812 658.427Z" fill="#E0E0E0"/>
<path d="M254.776 597.379V590.359L258.871 591.138C269.017 593.066 272.783 589.461 272.783 583.823C272.783 577.529 268.033 573.52 262.604 572.266C256.933 570.96 252.909 573.164 249.451 575.838L244.549 569.397C248.183 565.597 254.881 563.365 263.602 565.507C274.598 568.2 280.702 575.335 280.702 584.664C280.702 591.594 276.778 595.289 270.959 596.453C277.719 599.275 282.184 604.41 282.184 611.962C282.184 621.462 274.983 627.585 263.003 626.155C253.532 625.029 246.264 620.389 241.951 614.94L247.01 610.105C250.81 614.503 255.702 618.18 262.4 619.101C269.097 620.023 274.313 617.415 274.313 610.955C274.313 605.521 270.57 600.182 258.567 598.068L254.776 597.379Z" fill="black"/>
<path d="M270.765 617.828C269.222 618.702 267.488 619.181 265.715 619.225C265.036 619.296 264.352 619.296 263.673 619.225C263.255 619.196 262.832 619.154 262.4 619.097C259.169 618.665 256.076 617.516 253.346 615.733C250.977 614.168 248.844 612.273 247.01 610.105L241.951 614.964C243.191 616.52 244.594 617.939 246.136 619.196C250.978 623.084 256.83 625.507 263.003 626.179C274.042 627.499 282.055 622.692 282.236 611.762L270.765 617.828Z" fill="#E0E0E0"/>
<path d="M863.175 533.088C1013.94 456.95 1487.8 544.141 665.167 956.38C901.109 956.38 1202.65 955.463 1202.65 955.463C1202.65 955.463 1203.86 417.445 1203.86 391.543C1091.65 369.755 888.825 358.383 611.9 438.364C642.942 449.968 863.175 533.088 863.175 533.088Z" fill="#E0E0E0"/>
<path d="M430.526 209.874L552.487 185.844L740.91 223.179L737.063 255.954L682.956 241.747L616.508 249.684L601.954 281.357L565.08 267.155L552.435 270.48C536.313 279.148 456.922 246.905 431.31 235.22C412.557 226.642 392.745 218.187 430.526 209.874Z" fill="black"/>
<path d="M465.648 208.972L464.176 209.841L463.587 219.375C463.502 220.654 463.884 221.921 464.66 222.942C465.369 223.881 465.748 225.028 465.738 226.205L466.812 230.727C468.673 233.576 471.551 235.606 474.858 236.403C474.858 236.403 551.837 258.69 553.518 258.971L578.888 263.184C584.416 263.89 590.032 263.334 595.314 261.559L640.567 246.397L643.84 248.682L744.72 231.492L771.368 223.526L780.597 218.866C781.629 218.178 782.501 217.275 783.153 216.22C783.805 215.164 784.221 213.98 784.373 212.748C784.373 212.748 786.639 200.821 785.323 199.344C784.92 198.815 784.704 198.166 784.711 197.501L591.518 237.876L543.567 236.684L537.326 229.63L472.203 212.14L470.374 217.033L465.648 208.972Z" fill="black"/>
<path d="M528.353 237.282C523.014 249.551 513.88 257.061 505.705 254.857C498.181 252.848 493.611 243.191 493.54 231.15C493.516 227.16 529.569 234.494 528.353 237.282Z" fill="black"/>
<path d="M483.408 235.677C483.408 239.952 488.576 254.828 505.705 254.881C505.733 248.962 497.82 235.567 497.82 235.567L483.408 235.677Z" fill="black"/>
<path d="M782.563 160.028C782.788 157.259 783.165 154.505 783.694 151.777C775.894 132.516 770.451 127.077 767.952 125.51C764.656 105.284 741.148 104.785 646.082 105.142C592.283 105.346 584.004 112.708 584.004 112.708L545.054 138.753L535.554 144.035L507.914 151.041C502.302 152.474 497.034 155.014 492.419 158.513L486.372 163.077C484.573 164.447 483.093 166.19 482.036 168.188L477.666 176.401L469.971 185.711C467.705 188.477 466.388 191.897 466.213 195.468L465.563 207.941C465.479 209.454 465.823 210.961 466.555 212.287L470.355 219.199L471.415 215.769C471.551 215.273 471.875 214.851 472.319 214.591C472.763 214.332 473.291 214.257 473.79 214.382L532.913 230.19C534.544 230.644 535.972 231.641 536.96 233.016L541.14 238.759C541.14 238.759 554.54 242.122 565.659 242.559C574.884 242.93 737.296 215.242 764.684 210.563C764.684 210.696 764.684 210.824 764.661 210.953C772.208 209.979 773.344 209.827 778.759 205.965C788.928 198.921 786.762 185.094 788.42 174.615C790.078 164.137 782.563 160.028 782.563 160.028Z" fill="#FAFAFA"/>
<path d="M484.677 164.384L485.551 170.407C485.869 172.587 485.28 178.591 507.785 183.365C547.823 191.853 555.656 192.195 602.904 182.253L592.426 194.955C589.449 198.624 585.234 201.079 580.574 201.856L545.424 207.509C542.926 207.911 540.533 208.81 538.39 210.155L528.681 216.254C527.902 216.749 527.029 217.08 526.118 217.225C525.206 217.371 524.274 217.328 523.38 217.099L483.104 206.777C482.421 206.591 481.801 206.221 481.312 205.709C480.822 205.197 480.481 204.561 480.326 203.87L478.901 188.566L476.706 177.427C476.706 177.427 478.972 167.804 483.356 166.141L484.677 164.384Z" fill="black"/>
<path d="M764.57 232.313C760.804 248.174 752.638 257.593 742.606 256.876C733.159 256.201 727.677 239.329 731.444 223.469C735.211 207.609 745.694 196.722 754.828 199.168C763.962 201.614 768.342 216.448 764.57 232.313Z" fill="black"/>
<path d="M726.779 221.997C731.529 201.933 745.304 188.314 757.574 191.597C766.542 193.972 772.208 204.74 772.745 218.197C759.949 222.258 745.908 222.377 726.779 221.997Z" fill="black"/>
<path d="M584.26 242.084C590.217 216.81 608.348 199.847 624.749 204.198C636.748 207.386 644.5 221.089 645.464 238.113C628.478 243.03 609.763 242.93 584.26 242.084Z" fill="black"/>
<path d="M722.386 236.085C722.68 241.942 727.858 258.771 744.421 256.795C744.421 251.399 733.496 235.98 733.496 235.98L722.386 236.085Z" fill="black"/>
<path d="M759.153 230.587C760.356 221.212 757.348 213.101 752.436 212.471C747.523 211.841 742.566 218.93 741.363 228.305C740.16 237.68 743.168 245.791 748.081 246.421C752.993 247.051 757.951 239.962 759.153 230.587Z" fill="white"/>
<path d="M535.554 144.035C535.292 144.235 535.073 144.488 534.911 144.776C534.75 145.064 534.649 145.382 534.615 145.711C534.58 146.04 534.614 146.372 534.712 146.687C534.811 147.003 534.973 147.294 535.188 147.545V147.545C544 155.971 599.755 163.524 599.755 163.524C629.623 168.393 632.611 165.676 642.32 154.774L668.867 120.774C668.867 120.774 620.693 117.235 606.386 116.024C591.438 114.76 584.004 112.699 584.004 112.699C574.281 117.302 540.618 139.855 535.554 144.035Z" fill="black"/>
<path d="M754.875 119.43C746.031 117.819 729.297 117.169 720.471 117.235C720.161 117.237 719.855 117.303 719.572 117.43C719.29 117.557 719.036 117.742 718.829 117.972C718.622 118.202 718.464 118.473 718.368 118.767C718.271 119.062 718.237 119.373 718.267 119.681V119.734C719.474 139.498 718.519 149.853 718.69 154.157C718.702 154.448 718.777 154.733 718.91 154.992C719.043 155.251 719.23 155.479 719.458 155.659C719.687 155.84 719.952 155.969 720.235 156.037C720.518 156.106 720.812 156.113 721.098 156.057L756.329 149.269C756.784 149.182 757.213 148.99 757.581 148.709C757.95 148.428 758.248 148.065 758.452 147.649L763.991 136.397C764.28 135.804 764.326 135.123 764.119 134.497C763.354 132.217 761.141 125.814 757.773 121.258C757.077 120.301 756.04 119.646 754.875 119.43V119.43Z" fill="black"/>
<path d="M710.805 119.254C710.662 118.812 710.374 118.431 709.988 118.172C709.602 117.913 709.14 117.793 708.677 117.829C698.783 118.537 689.202 119.563 684.974 120.061C678.12 120.864 678.12 120.864 674.192 126.308L644.675 163.077L646.148 170.521L708.102 158.551C708.604 158.457 709.07 158.225 709.447 157.881C709.825 157.537 710.099 157.094 710.24 156.603C712.301 149.25 712.786 125.719 710.805 119.254Z" fill="black"/>
<path d="M636.092 120.461C643.345 121.468 657.757 122.076 664.003 122.475C650.195 139.807 633.271 164.389 623.6 163.382C632.463 151.492 643.345 130.136 636.092 120.461Z" fill="white"/>
<path d="M755.384 121.069L760.946 133.062C761.238 133.69 761.387 134.375 761.382 135.068C761.378 135.76 761.219 136.443 760.918 137.067L756.871 145.436C756.597 146.002 756.194 146.495 755.694 146.876C755.194 147.256 754.611 147.513 753.992 147.626L743.898 149.478L755.384 121.069Z" fill="white"/>
<path d="M693.125 121.468L708.644 120.461C708.644 120.461 712.068 133.965 707.219 155.321C701.576 156.532 682.229 159.957 682.229 159.957" fill="white"/>
<path d="M636.943 251.898C632.288 271.506 621.705 283.623 608.039 281.932C596.425 280.507 591.343 260.557 596.003 240.968C600.662 221.379 613.577 207.913 624.906 210.934C636.235 213.955 641.602 232.294 636.943 251.898Z" fill="black"/>
<path d="M582.925 260.291C582.902 265.084 588.754 281.875 608.058 281.932C608.091 275.282 599.17 260.167 599.17 260.167L582.925 260.291Z" fill="black"/>
<path d="M629.686 249.215C630.952 237.602 626.887 227.633 620.607 226.948C614.328 226.264 608.211 235.123 606.945 246.736C605.679 258.349 609.744 268.318 616.024 269.003C622.304 269.687 628.421 260.828 629.686 249.215Z" fill="white"/>
<path d="M569.538 197.554C569.641 194.138 568.286 191.326 566.513 191.273C564.739 191.22 563.219 193.945 563.116 197.361C563.014 200.777 564.368 203.589 566.142 203.642C567.915 203.695 569.436 200.969 569.538 197.554Z" fill="white"/>
<path d="M574.017 196.116C574.046 193.996 573.029 192.264 571.746 192.246C570.464 192.229 569.4 193.933 569.372 196.052C569.343 198.172 570.359 199.904 571.642 199.922C572.925 199.939 573.988 198.235 574.017 196.116Z" fill="white"/>
<path d="M482.491 175.388C483.158 172.043 482.936 169.18 481.994 168.992C481.053 168.804 479.748 171.363 479.081 174.708C478.414 178.052 478.637 180.916 479.578 181.104C480.52 181.291 481.824 178.732 482.491 175.388Z" fill="white"/>
<path d="M476.587 219.227L473.481 227.592L475.808 230.641L535.459 247.528L530.999 234.023C530.101 233.99 529.892 235.634 530.134 236.432L530.961 240.844C531.436 242.383 530.747 243.12 529.061 242.668C519.295 240.051 492.3 233.078 481.827 229.962C478.069 228.846 476.388 226.77 477.552 220.685C477.794 219.579 477.727 219.526 476.587 219.227Z" fill="white"/>
<path d="M783.76 160.783C780.041 158.513 777.395 157.169 774.992 155.962C772.408 154.661 771.073 151.621 772.427 150.481C773.78 149.341 782.226 149.17 781.252 146.125C779.913 141.964 768.019 125.562 768.019 125.562L769.705 125.591C769.705 125.591 783.732 143.332 784.648 146.191C785.598 147.502 788.144 147.422 787.498 150.642C786.852 153.863 786.7 159.548 783.76 160.783Z" fill="#FF5715"/>
<path d="M755.868 111.022L767.107 121.634L769.258 120.864C769.529 114.68 766.37 112.362 755.868 111.022Z" fill="black"/>
<path d="M652.313 162.18L646.138 161.472L646.143 170.521L652.423 170.763L654.08 172.972L667.751 173.466L669.637 170.763L669.798 163.301L668.079 159.696L653.971 159.23L652.313 162.18Z" fill="black"/>
<path d="M529.749 884.365L464.175 917.188C460.168 919.173 455.773 920.253 451.302 920.351C446.831 920.45 442.393 919.564 438.302 917.758L165.139 796.709C163.013 795.802 161.157 794.36 159.753 792.524C158.349 790.688 157.444 788.52 157.126 786.23C157.126 786.23 161.876 747.955 190.376 738.958C202.085 735.263 211.152 733.524 223.151 731.596C226.242 731.099 229.389 731.051 232.494 731.453L257.071 734.64C261.745 734.887 297.56 744.948 301.626 747.161L529.963 871.564C535.226 874.442 535.117 881.677 529.749 884.365Z" fill="black"/>
<path d="M253.1 828.375C261.37 823.11 261.418 808.387 253.208 795.49C244.998 782.592 231.638 776.405 223.368 781.669C215.098 786.934 215.049 801.657 223.259 814.554C231.47 827.452 244.83 833.639 253.1 828.375Z" fill="black"/>
<path d="M433.272 909.851C441.542 904.586 441.59 889.863 433.38 876.966C425.17 864.068 411.81 857.88 403.54 863.145C395.27 868.409 395.222 883.133 403.432 896.03C411.642 908.927 425.002 915.115 433.272 909.851Z" fill="black"/>
<path d="M210.022 801.615L238.237 805.021L255.76 824.51L446.016 906.704L446.914 870.058L221.84 769.501L208.749 779.689L210.022 801.615Z" fill="black"/>
<path d="M249.794 829.735L262.362 824.439L258.225 814.53L246.763 824.757L249.794 829.735Z" fill="black"/>
<path d="M432.621 910.229L445.185 904.932L441.048 895.019L429.586 905.251L432.621 910.229Z" fill="black"/>
<path d="M214.748 801.729L210.022 799.003L206.089 783.589C205.571 781.214 205.751 778.739 206.607 776.464L208.891 770.374C209.486 768.79 209.756 767.102 209.685 765.411C209.614 763.725 209.882 762.042 210.473 760.461C211.065 758.881 211.968 757.435 213.128 756.21L227.977 740.535C238.533 729.385 251.288 720.545 265.435 714.576L282.535 712.201C283.425 711.831 284.293 711.419 285.138 710.966L289.888 709.508C294.638 706.986 295.208 707.133 300.59 707.166L314.265 707.237C317.871 707.257 321.449 707.874 324.853 709.061L371.835 717.816C371.835 717.816 401.689 713.911 421.05 723.041C421.05 723.041 486.268 749.888 508.716 772.132L538.38 798.623C539.168 799.326 539.982 799.997 540.821 800.637L555.095 811.505C556.036 812.221 556.803 813.142 557.337 814.198C557.871 815.253 558.158 816.416 558.178 817.599L558.33 826.42L564.453 837.216C565.379 838.844 565.687 840.752 565.322 842.589L563.493 851.88C563.103 853.836 561.982 855.571 560.358 856.729L559.023 857.679C557.385 858.847 556.259 860.601 555.879 862.577V862.577C555.684 863.591 555.29 864.557 554.719 865.418C554.148 866.279 553.412 867.018 552.554 867.593L510.279 895.993C508.59 897.132 506.686 897.913 504.683 898.287L496.642 899.807C494.206 900.265 491.922 901.318 489.992 902.871V902.871C487.378 904.974 484.136 906.145 480.781 906.196L446.007 906.718C446.007 906.718 441.105 870.865 415.55 862.881C389.995 854.896 392.275 869.668 395.03 885.5C382.053 878.879 264.538 826.567 264.538 826.567C264.661 800.784 253.361 785.365 239.657 779.95C225.464 774.322 208.511 777.404 214.748 801.729Z" fill="#D3D3D3"/>
<path d="M371.816 717.816L365.85 719.036C358.293 720.584 350.909 722.885 343.81 725.905L333.408 730.332C324.99 733.911 317.027 738.478 309.686 743.936L309.007 744.444C300.847 750.508 293.525 757.624 287.228 765.605V765.605C287.018 765.877 286.897 766.207 286.88 766.55C286.863 766.893 286.951 767.233 287.133 767.525C287.316 767.816 287.582 768.044 287.898 768.179C288.214 768.314 288.564 768.349 288.9 768.28L325.304 761.197C329.272 760.427 332.926 758.508 335.811 755.678L341.336 750.263C350.753 741.034 361.597 733.385 373.45 727.61L394.787 717.212L388.736 717.108C384.407 717.032 380.084 717.165 375.768 717.507L371.816 717.816Z" fill="black"/>
<path d="M290.463 789.36C290.243 786.646 290.91 783.935 292.363 781.632L292.596 781.257C294.002 779.018 296.047 777.252 298.467 776.189L306.898 772.488C308.869 771.624 310.926 770.973 313.035 770.546L325.803 767.976C330.294 767.073 334.931 767.211 339.36 768.38L353.88 772.218C362.423 774.472 370.674 777.714 378.466 781.879L392.74 789.479C400.127 793.424 407.054 798.176 413.393 803.648L420.542 809.823C421.232 810.419 421.673 811.252 421.781 812.157C421.888 813.062 421.653 813.975 421.121 814.716L411.218 828.529L295.793 783.665C295.748 785.468 295.031 787.189 293.783 788.491L292.358 789.997C292.22 790.162 292.035 790.282 291.827 790.341C291.619 790.399 291.398 790.394 291.194 790.325C290.989 790.256 290.81 790.128 290.679 789.955C290.549 789.783 290.474 789.576 290.463 789.36V789.36Z" fill="black"/>
<path d="M209.49 768.498L219.593 766.185H219.631C221.297 765.768 222.782 764.821 223.863 763.487L228.732 757.625L224.31 755.07C221.758 753.654 218.819 753.098 215.926 753.483C214.549 753.483 208.887 758.233 209.191 763.359C209.685 765.43 208.089 767.942 209.49 768.498Z" fill="white"/>
<path d="M426.489 800.551L455.583 831.274C457.189 832.972 459.296 834.113 461.596 834.53C463.896 834.947 466.269 834.618 468.37 833.592L479.888 827.973C493.872 821.141 506.696 812.154 517.888 801.34L521.807 797.54C522.715 796.665 523.239 795.467 523.267 794.207C523.294 792.947 522.823 791.727 521.954 790.814L521.707 790.552C510.507 778.759 498.096 768.176 484.681 758.979L483.812 758.385L426.489 800.551Z" fill="black"/>
<path d="M506.598 860.254L504.926 858.497C504.417 857.971 503.769 857.602 503.058 857.434C502.346 857.266 501.602 857.305 500.912 857.547L494.533 859.746C493.615 860.061 492.611 860.015 491.725 859.618L484.045 856.155C482.913 855.646 481.677 855.414 480.438 855.478C479.199 855.541 477.993 855.899 476.92 856.521L474.198 858.098C472.651 858.992 470.934 859.554 469.158 859.751L461.867 860.558C461.481 860.6 461.113 860.744 460.8 860.975C460.487 861.205 460.241 861.514 460.086 861.871C459.931 862.227 459.873 862.618 459.918 863.004C459.963 863.39 460.11 863.757 460.342 864.068L463.61 868.433C465.406 870.837 468.032 872.486 470.977 873.06V873.06C475.165 873.878 479.477 873.819 483.641 872.884V872.884C485.688 872.428 487.673 871.729 489.555 870.804L506.151 862.643C506.364 862.54 506.55 862.389 506.693 862.201C506.837 862.013 506.934 861.794 506.977 861.561C507.021 861.329 507.009 861.09 506.943 860.862C506.877 860.635 506.759 860.427 506.598 860.254V860.254Z" fill="#FF5715"/>
<path d="M539.601 837.996L539.776 836.993C540.412 833.396 542.071 830.058 544.555 827.379L546.721 825.037C547.518 824.178 548.038 823.099 548.212 821.94L549.343 814.412L548.744 810.194L550.739 809.125C551.202 808.879 551.727 808.772 552.249 808.816C552.771 808.861 553.27 809.056 553.684 809.377L558.031 812.773C558.592 813.212 559.036 813.784 559.323 814.436C559.611 815.088 559.733 815.801 559.679 816.511L559.175 823.294L550.953 831.574C548.144 834.408 545.127 837.03 541.928 839.416V839.416C541.728 839.569 541.49 839.667 541.24 839.699C540.99 839.73 540.735 839.695 540.503 839.596V839.596C540.191 839.474 539.931 839.248 539.767 838.957C539.602 838.665 539.544 838.325 539.601 837.996Z" fill="#FF5715"/>
<path d="M489.46 846.812L491.716 847.025C496.591 847.496 501.48 846.29 505.576 843.605L536.252 823.527C538.555 822.021 540.209 819.705 540.888 817.039L541.9 813.063L489.46 846.812Z" fill="black"/>
<path d="M454.229 785.603L484.154 763.226C491.721 768.242 498.826 773.922 505.386 780.198L517.143 791.436L454.229 785.603Z" fill="white"/>
<path d="M209.898 803.453L208.307 791.882L466.536 906.248L444.073 908.063L209.898 803.453Z" fill="black"/>
<path d="M248.251 820.758C253.823 817.21 253.856 807.29 248.323 798.599C242.791 789.909 233.789 785.739 228.217 789.287C222.644 792.834 222.612 802.755 228.144 811.445C233.676 820.135 242.678 824.305 248.251 820.758Z" fill="white"/>
<path d="M428.423 902.233C433.995 898.686 434.028 888.765 428.495 880.075C422.963 871.385 413.961 867.215 408.389 870.762C402.817 874.31 402.784 884.23 408.316 892.921C413.848 901.611 422.85 905.781 428.423 902.233Z" fill="white"/>
<path d="M358.251 772.93C360.892 774.175 361.965 777.12 360.602 779.39L356.973 785.442C354.315 789.869 352.041 794.516 350.176 799.331C349.135 802.019 346.271 803.705 343.051 803.515L358.35 810.555L357.481 809.078C356.65 807.702 356.375 806.061 356.712 804.489V804.489C358.173 797.971 360.771 791.761 364.388 786.145L367.988 780.544C369.1 778.82 371.365 778.022 373.56 778.582L375.332 779.057L376.728 776.63L359.519 769.453L358.251 772.93Z" fill="#D3D3D3"/>
<path d="M271.734 713.712C271.734 713.712 275.534 708.962 280.241 708.833C283.464 708.794 286.684 709.019 289.87 709.508L283.419 714.163L271.734 713.712Z" fill="white"/>
<path opacity="0.49" d="M338.049 848.08L342.438 768.365L418.575 719.521C418.575 719.521 493.112 746.43 526.552 782.53C539.653 795.635 558.852 808.892 564.856 812.93C565.446 813.328 565.948 813.842 566.332 814.44C566.716 815.039 566.973 815.71 567.089 816.411L565.688 827.531L573.007 840.428L584.768 924.08H340.143C340.143 924.08 332.843 848.08 338.049 848.08Z" fill="black"/>
</g>
<defs>
<clipPath id="clip0">
<rect width="1200" height="950" fill="white"/>
</clipPath>
</defs>
</svg>
