<svg xmlns="http://www.w3.org/2000/svg" width="87" height="21.162" viewBox="0 0 87 21.162"><g transform="translate(-45 -1798)"><g transform="translate(45 1798)"><path d="M10.054,12.846l4.362,3.174-1.669-5.126,4.362-3.1H11.759L10.054,2.5l-1.7,5.291H3l4.362,3.1L5.692,16.02Z" transform="translate(0.527 0.439)" fill="#ffce00"/><path d="M0,0H21.162V21.162H0Z" fill="none"/></g><g transform="translate(61.459 1798)"><path d="M10.054,12.846l4.362,3.174-1.669-5.126,4.362-3.1H11.759L10.054,2.5l-1.7,5.291H3l4.362,3.1L5.692,16.02Z" transform="translate(0.527 0.439)" fill="#ffce00"/><path d="M0,0H21.162V21.162H0Z" fill="none"/></g><g transform="translate(77.919 1798)"><path d="M10.054,12.846l4.362,3.174-1.669-5.126,4.362-3.1H11.759L10.054,2.5l-1.7,5.291H3l4.362,3.1L5.692,16.02Z" transform="translate(0.527 0.439)" fill="#ffce00"/><path d="M0,0H21.162V21.162H0Z" fill="none"/></g><g transform="translate(94.378 1798)"><path d="M10.054,12.846l4.362,3.174-1.669-5.126,4.362-3.1H11.759L10.054,2.5l-1.7,5.291H3l4.362,3.1L5.692,16.02Z" transform="translate(0.527 0.439)" fill="#ffce00"/><path d="M0,0H21.162V21.162H0Z" fill="none"/></g><g transform="translate(110.838 1798)"><path d="M10.054,12.846l4.362,3.174-1.669-5.126,4.362-3.1H11.759L10.054,2.5l-1.7,5.291H3l4.362,3.1L5.692,16.02Z" transform="translate(0.527 0.439)" fill="rgba(255,255,255,0.35)"/><path d="M0,0H21.162V21.162H0Z" fill="none"/></g></g></svg>