<svg xmlns="http://www.w3.org/2000/svg" width="78" height="78" viewBox="0 0 78 78">
  <g fill="#FFF" opacity=".196">
    <polygon points="0 45 3 45 3 48 0 48" transform="matrix(0 1 1 0 -45 45)"/>
    <polygon points="0 60 3 60 3 63 0 63" transform="matrix(0 1 1 0 -60 60)"/>
    <polygon points="0 75 3 75 3 78 0 78" transform="matrix(0 1 1 0 -75 75)"/>
    <polygon points="0 15 3 15 3 18 0 18" transform="matrix(0 1 1 0 -15 15)"/>
    <polygon points="30 45 33 45 33 48 30 48" transform="matrix(0 1 1 0 -15 15)"/>
    <polygon points="30 60 33 60 33 63 30 63" transform="matrix(0 1 1 0 -30 30)"/>
    <polygon points="30 75 33 75 33 78 30 78" transform="matrix(0 1 1 0 -45 45)"/>
    <polygon points="60 45 63 45 63 48 60 48" transform="matrix(0 1 1 0 15 -15)"/>
    <polygon points="60 60 63 60 63 63 60 63" transform="matrix(0 1 1 0 0 0)"/>
    <polygon points="60 75 63 75 63 78 60 78" transform="matrix(0 1 1 0 -15 15)"/>
    <polygon points="30 15 33 15 33 18 30 18" transform="matrix(0 1 1 0 15 -15)"/>
    <polygon points="60 15 63 15 63 18 60 18" transform="matrix(0 1 1 0 45 -45)"/>
    <polygon points="0 30 3 30 3 33 0 33" transform="matrix(0 1 1 0 -30 30)"/>
    <rect width="3" height="3" transform="matrix(0 1 1 0 0 0)"/>
    <polygon points="30 30 33 30 33 33 30 33" transform="matrix(0 1 1 0 0 0)"/>
    <polygon points="60 30 63 30 63 33 60 33" transform="matrix(0 1 1 0 30 -30)"/>
    <polygon points="30 0 33 0 33 3 30 3" transform="matrix(0 1 1 0 30 -30)"/>
    <polygon points="60 0 63 0 63 3 60 3" transform="matrix(0 1 1 0 60 -60)"/>
    <polygon points="15 45 18 45 18 48 15 48" transform="matrix(0 1 1 0 -30 30)"/>
    <polygon points="15 60 18 60 18 63 15 63" transform="matrix(0 1 1 0 -45 45)"/>
    <polygon points="15 75 18 75 18 78 15 78" transform="matrix(0 1 1 0 -60 60)"/>
    <polygon points="15 15 18 15 18 18 15 18" transform="matrix(0 1 1 0 0 0)"/>
    <polygon points="45 45 48 45 48 48 45 48" transform="matrix(0 1 1 0 0 0)"/>
    <polygon points="45 60 48 60 48 63 45 63" transform="matrix(0 1 1 0 -15 15)"/>
    <polygon points="45 75 48 75 48 78 45 78" transform="matrix(0 1 1 0 -30 30)"/>
    <polygon points="75 45 78 45 78 48 75 48" transform="matrix(0 1 1 0 30 -30)"/>
    <polygon points="75 60 78 60 78 63 75 63" transform="matrix(0 1 1 0 15 -15)"/>
    <polygon points="75 75 78 75 78 78 75 78" transform="matrix(0 1 1 0 0 0)"/>
    <polygon points="45 15 48 15 48 18 45 18" transform="matrix(0 1 1 0 30 -30)"/>
    <polygon points="75 15 78 15 78 18 75 18" transform="matrix(0 1 1 0 60 -60)"/>
    <polygon points="15 30 18 30 18 33 15 33" transform="matrix(0 1 1 0 -15 15)"/>
    <polygon points="15 0 18 0 18 3 15 3" transform="matrix(0 1 1 0 15 -15)"/>
    <polygon points="45 30 48 30 48 33 45 33" transform="matrix(0 1 1 0 15 -15)"/>
    <polygon points="75 30 78 30 78 33 75 33" transform="matrix(0 1 1 0 45 -45)"/>
    <polygon points="45 0 48 0 48 3 45 3" transform="matrix(0 1 1 0 45 -45)"/>
    <polygon points="75 0 78 0 78 3 75 3" transform="matrix(0 1 1 0 75 -75)"/>
  </g>
</svg>
