<svg xmlns="http://www.w3.org/2000/svg" width="80" height="80" viewBox="0 0 80 80"><g transform="translate(-147 -1452)"><circle cx="40" cy="40" r="40" transform="translate(147 1452)" fill="#fff"/><path d="M6-41.7a2.652,2.652,0,0,1-3-3V-55.9C3-63.2,6.2-69,13.9-69.8c1.3-.1,1.8,1.1.9,2.2a11.906,11.906,0,0,0-3.2,7.7.945.945,0,0,0,1,1h4.6a2.737,2.737,0,0,1,3,3v11.2a2.693,2.693,0,0,1-3,3Zm20,0a2.652,2.652,0,0,1-3-3V-55.9c0-7.3,3.2-13.1,10.9-13.9,1.3-.1,1.8,1.1.9,2.2a11.906,11.906,0,0,0-3.2,7.7.945.945,0,0,0,1,1h4.6a2.737,2.737,0,0,1,3,3v11.2a2.693,2.693,0,0,1-3,3Z" transform="translate(166 1547)" fill="#3984fc"/></g></svg>