<svg xmlns="http://www.w3.org/2000/svg" width="258" height="258" viewBox="0 0 258 258">
  <path fill="#DADFE7" d="M0,45 L3,45 L3,48 L-1.8369702e-16,48 L0,45 Z M0,135 L3,135 L3,138 L-1.8369702e-16,138 L0,135 Z M0,225 L3,225 L3,228 L-1.8369702e-16,228 L0,225 Z M90,45 L93,45 L93,48 L90,48 L90,45 Z M90,135 L93,135 L93,138 L90,138 L90,135 Z M90,225 L93,225 L93,228 L90,228 L90,225 Z M180,45 L183,45 L183,48 L180,48 L180,45 Z M180,135 L183,135 L183,138 L180,138 L180,135 Z M180,225 L183,225 L183,228 L180,228 L180,225 Z M0,60 L3,60 L3,63 L-1.8369702e-16,63 L0,60 Z M0,150 L3,150 L3,153 L-1.8369702e-16,153 L0,150 Z M0,240 L3,240 L3,243 L-1.8369702e-16,243 L0,240 Z M90,60 L93,60 L93,63 L90,63 L90,60 Z M90,150 L93,150 L93,153 L90,153 L90,150 Z M90,240 L93,240 L93,243 L90,243 L90,240 Z M180,60 L183,60 L183,63 L180,63 L180,60 Z M180,150 L183,150 L183,153 L180,153 L180,150 Z M180,240 L183,240 L183,243 L180,243 L180,240 Z M0,75 L3,75 L3,78 L-1.8369702e-16,78 L0,75 Z M0,165 L3,165 L3,168 L-1.8369702e-16,168 L0,165 Z M0,255 L3,255 L3,258 L-1.8369702e-16,258 L0,255 Z M90,75 L93,75 L93,78 L90,78 L90,75 Z M90,165 L93,165 L93,168 L90,168 L90,165 Z M90,255 L93,255 L93,258 L90,258 L90,255 Z M180,75 L183,75 L183,78 L180,78 L180,75 Z M180,165 L183,165 L183,168 L180,168 L180,165 Z M180,255 L183,255 L183,258 L180,258 L180,255 Z M0,15 L3,15 L3,18 L-1.8369702e-16,18 L0,15 Z M0,105 L3,105 L3,108 L-1.8369702e-16,108 L0,105 Z M0,195 L3,195 L3,198 L-1.8369702e-16,198 L0,195 Z M90,15 L93,15 L93,18 L90,18 L90,15 Z M90,105 L93,105 L93,108 L90,108 L90,105 Z M90,195 L93,195 L93,198 L90,198 L90,195 Z M180,15 L183,15 L183,18 L180,18 L180,15 Z M180,105 L183,105 L183,108 L180,108 L180,105 Z M180,195 L183,195 L183,198 L180,198 L180,195 Z M30,45 L33,45 L33,48 L30,48 L30,45 Z M30,135 L33,135 L33,138 L30,138 L30,135 Z M30,225 L33,225 L33,228 L30,228 L30,225 Z M120,45 L123,45 L123,48 L120,48 L120,45 Z M120,135 L123,135 L123,138 L120,138 L120,135 Z M120,225 L123,225 L123,228 L120,228 L120,225 Z M210,45 L213,45 L213,48 L210,48 L210,45 Z M210,135 L213,135 L213,138 L210,138 L210,135 Z M210,225 L213,225 L213,228 L210,228 L210,225 Z M30,60 L33,60 L33,63 L30,63 L30,60 Z M30,150 L33,150 L33,153 L30,153 L30,150 Z M30,240 L33,240 L33,243 L30,243 L30,240 Z M120,60 L123,60 L123,63 L120,63 L120,60 Z M120,150 L123,150 L123,153 L120,153 L120,150 Z M120,240 L123,240 L123,243 L120,243 L120,240 Z M210,60 L213,60 L213,63 L210,63 L210,60 Z M210,150 L213,150 L213,153 L210,153 L210,150 Z M210,240 L213,240 L213,243 L210,243 L210,240 Z M30,75 L33,75 L33,78 L30,78 L30,75 Z M30,165 L33,165 L33,168 L30,168 L30,165 Z M30,255 L33,255 L33,258 L30,258 L30,255 Z M120,75 L123,75 L123,78 L120,78 L120,75 Z M120,165 L123,165 L123,168 L120,168 L120,165 Z M120,255 L123,255 L123,258 L120,258 L120,255 Z M210,75 L213,75 L213,78 L210,78 L210,75 Z M210,165 L213,165 L213,168 L210,168 L210,165 Z M210,255 L213,255 L213,258 L210,258 L210,255 Z M60,45 L63,45 L63,48 L60,48 L60,45 Z M60,135 L63,135 L63,138 L60,138 L60,135 Z M60,225 L63,225 L63,228 L60,228 L60,225 Z M150,45 L153,45 L153,48 L150,48 L150,45 Z M150,135 L153,135 L153,138 L150,138 L150,135 Z M150,225 L153,225 L153,228 L150,228 L150,225 Z M240,45 L243,45 L243,48 L240,48 L240,45 Z M240,135 L243,135 L243,138 L240,138 L240,135 Z M240,225 L243,225 L243,228 L240,228 L240,225 Z M60,60 L63,60 L63,63 L60,63 L60,60 Z M60,150 L63,150 L63,153 L60,153 L60,150 Z M60,240 L63,240 L63,243 L60,243 L60,240 Z M150,60 L153,60 L153,63 L150,63 L150,60 Z M150,150 L153,150 L153,153 L150,153 L150,150 Z M150,240 L153,240 L153,243 L150,243 L150,240 Z M240,60 L243,60 L243,63 L240,63 L240,60 Z M240,150 L243,150 L243,153 L240,153 L240,150 Z M240,240 L243,240 L243,243 L240,243 L240,240 Z M60,75 L63,75 L63,78 L60,78 L60,75 Z M60,165 L63,165 L63,168 L60,168 L60,165 Z M60,255 L63,255 L63,258 L60,258 L60,255 Z M150,75 L153,75 L153,78 L150,78 L150,75 Z M150,165 L153,165 L153,168 L150,168 L150,165 Z M150,255 L153,255 L153,258 L150,258 L150,255 Z M240,75 L243,75 L243,78 L240,78 L240,75 Z M240,165 L243,165 L243,168 L240,168 L240,165 Z M240,255 L243,255 L243,258 L240,258 L240,255 Z M30,15 L33,15 L33,18 L30,18 L30,15 Z M30,105 L33,105 L33,108 L30,108 L30,105 Z M30,195 L33,195 L33,198 L30,198 L30,195 Z M120,15 L123,15 L123,18 L120,18 L120,15 Z M120,105 L123,105 L123,108 L120,108 L120,105 Z M120,195 L123,195 L123,198 L120,198 L120,195 Z M210,15 L213,15 L213,18 L210,18 L210,15 Z M210,105 L213,105 L213,108 L210,108 L210,105 Z M210,195 L213,195 L213,198 L210,198 L210,195 Z M60,15 L63,15 L63,18 L60,18 L60,15 Z M60,105 L63,105 L63,108 L60,108 L60,105 Z M60,195 L63,195 L63,198 L60,198 L60,195 Z M150,15 L153,15 L153,18 L150,18 L150,15 Z M150,105 L153,105 L153,108 L150,108 L150,105 Z M150,195 L153,195 L153,198 L150,198 L150,195 Z M240,15 L243,15 L243,18 L240,18 L240,15 Z M240,105 L243,105 L243,108 L240,108 L240,105 Z M240,195 L243,195 L243,198 L240,198 L240,195 Z M0,30 L3,30 L3,33 L-1.8369702e-16,33 L0,30 Z M0,120 L3,120 L3,123 L-1.8369702e-16,123 L0,120 Z M0,210 L3,210 L3,213 L-1.8369702e-16,213 L0,210 Z M90,30 L93,30 L93,33 L90,33 L90,30 Z M90,120 L93,120 L93,123 L90,123 L90,120 Z M90,210 L93,210 L93,213 L90,213 L90,210 Z M180,30 L183,30 L183,33 L180,33 L180,30 Z M180,120 L183,120 L183,123 L180,123 L180,120 Z M180,210 L183,210 L183,213 L180,213 L180,210 Z M0,-9.18485099e-17 L3,9.18485099e-17 L3,3 L-1.8369702e-16,3 L0,-9.18485099e-17 Z M0,90 L3,90 L3,93 L-1.8369702e-16,93 L0,90 Z M0,180 L3,180 L3,183 L-1.8369702e-16,183 L0,180 Z M90,-9.18485099e-17 L93,9.18485099e-17 L93,3 L90,3 L90,-9.18485099e-17 Z M90,90 L93,90 L93,93 L90,93 L90,90 Z M90,180 L93,180 L93,183 L90,183 L90,180 Z M180,-9.18485099e-17 L183,9.18485099e-17 L183,3 L180,3 L180,-9.18485099e-17 Z M180,90 L183,90 L183,93 L180,93 L180,90 Z M180,180 L183,180 L183,183 L180,183 L180,180 Z M30,30 L33,30 L33,33 L30,33 L30,30 Z M30,120 L33,120 L33,123 L30,123 L30,120 Z M30,210 L33,210 L33,213 L30,213 L30,210 Z M120,30 L123,30 L123,33 L120,33 L120,30 Z M120,120 L123,120 L123,123 L120,123 L120,120 Z M120,210 L123,210 L123,213 L120,213 L120,210 Z M210,30 L213,30 L213,33 L210,33 L210,30 Z M210,120 L213,120 L213,123 L210,123 L210,120 Z M210,210 L213,210 L213,213 L210,213 L210,210 Z M60,30 L63,30 L63,33 L60,33 L60,30 Z M60,120 L63,120 L63,123 L60,123 L60,120 Z M60,210 L63,210 L63,213 L60,213 L60,210 Z M150,30 L153,30 L153,33 L150,33 L150,30 Z M150,120 L153,120 L153,123 L150,123 L150,120 Z M150,210 L153,210 L153,213 L150,213 L150,210 Z M240,30 L243,30 L243,33 L240,33 L240,30 Z M240,120 L243,120 L243,123 L240,123 L240,120 Z M240,210 L243,210 L243,213 L240,213 L240,210 Z M30,1.01837451e-15 L33,1.20207153e-15 L33,3 L30,3 L30,1.01837451e-15 Z M30,90 L33,90 L33,93 L30,93 L30,90 Z M30,180 L33,180 L33,183 L30,183 L30,180 Z M120,1.01837451e-15 L123,1.20207153e-15 L123,3 L120,3 L120,1.01837451e-15 Z M120,90 L123,90 L123,93 L120,93 L120,90 Z M120,180 L123,180 L123,183 L120,183 L120,180 Z M210,1.01837451e-15 L213,1.20207153e-15 L213,3 L210,3 L210,1.01837451e-15 Z M210,90 L213,90 L213,93 L210,93 L210,90 Z M210,180 L213,180 L213,183 L210,183 L210,180 Z M60,-1.20207153e-15 L63,-1.01837451e-15 L63,3 L60,3 L60,-1.20207153e-15 Z M60,90 L63,90 L63,93 L60,93 L60,90 Z M60,180 L63,180 L63,183 L60,183 L60,180 Z M150,-1.20207153e-15 L153,-1.01837451e-15 L153,3 L150,3 L150,-1.20207153e-15 Z M150,90 L153,90 L153,93 L150,93 L150,90 Z M150,180 L153,180 L153,183 L150,183 L150,180 Z M240,-1.20207153e-15 L243,-1.01837451e-15 L243,3 L240,3 L240,-1.20207153e-15 Z M240,90 L243,90 L243,93 L240,93 L240,90 Z M240,180 L243,180 L243,183 L240,183 L240,180 Z M15,45 L18,45 L18,48 L15,48 L15,45 Z M15,135 L18,135 L18,138 L15,138 L15,135 Z M15,225 L18,225 L18,228 L15,228 L15,225 Z M105,45 L108,45 L108,48 L105,48 L105,45 Z M105,135 L108,135 L108,138 L105,138 L105,135 Z M105,225 L108,225 L108,228 L105,228 L105,225 Z M195,45 L198,45 L198,48 L195,48 L195,45 Z M195,135 L198,135 L198,138 L195,138 L195,135 Z M195,225 L198,225 L198,228 L195,228 L195,225 Z M15,60 L18,60 L18,63 L15,63 L15,60 Z M15,150 L18,150 L18,153 L15,153 L15,150 Z M15,240 L18,240 L18,243 L15,243 L15,240 Z M105,60 L108,60 L108,63 L105,63 L105,60 Z M105,150 L108,150 L108,153 L105,153 L105,150 Z M105,240 L108,240 L108,243 L105,243 L105,240 Z M195,60 L198,60 L198,63 L195,63 L195,60 Z M195,150 L198,150 L198,153 L195,153 L195,150 Z M195,240 L198,240 L198,243 L195,243 L195,240 Z M15,75 L18,75 L18,78 L15,78 L15,75 Z M15,165 L18,165 L18,168 L15,168 L15,165 Z M15,255 L18,255 L18,258 L15,258 L15,255 Z M105,75 L108,75 L108,78 L105,78 L105,75 Z M105,165 L108,165 L108,168 L105,168 L105,165 Z M105,255 L108,255 L108,258 L105,258 L105,255 Z M195,75 L198,75 L198,78 L195,78 L195,75 Z M195,165 L198,165 L198,168 L195,168 L195,165 Z M195,255 L198,255 L198,258 L195,258 L195,255 Z M15,15 L18,15 L18,18 L15,18 L15,15 Z M15,105 L18,105 L18,108 L15,108 L15,105 Z M15,195 L18,195 L18,198 L15,198 L15,195 Z M105,15 L108,15 L108,18 L105,18 L105,15 Z M105,105 L108,105 L108,108 L105,108 L105,105 Z M105,195 L108,195 L108,198 L105,198 L105,195 Z M195,15 L198,15 L198,18 L195,18 L195,15 Z M195,105 L198,105 L198,108 L195,108 L195,105 Z M195,195 L198,195 L198,198 L195,198 L195,195 Z M45,45 L48,45 L48,48 L45,48 L45,45 Z M45,135 L48,135 L48,138 L45,138 L45,135 Z M45,225 L48,225 L48,228 L45,228 L45,225 Z M135,45 L138,45 L138,48 L135,48 L135,45 Z M135,135 L138,135 L138,138 L135,138 L135,135 Z M135,225 L138,225 L138,228 L135,228 L135,225 Z M225,45 L228,45 L228,48 L225,48 L225,45 Z M225,135 L228,135 L228,138 L225,138 L225,135 Z M225,225 L228,225 L228,228 L225,228 L225,225 Z M45,60 L48,60 L48,63 L45,63 L45,60 Z M45,150 L48,150 L48,153 L45,153 L45,150 Z M45,240 L48,240 L48,243 L45,243 L45,240 Z M135,60 L138,60 L138,63 L135,63 L135,60 Z M135,150 L138,150 L138,153 L135,153 L135,150 Z M135,240 L138,240 L138,243 L135,243 L135,240 Z M225,60 L228,60 L228,63 L225,63 L225,60 Z M225,150 L228,150 L228,153 L225,153 L225,150 Z M225,240 L228,240 L228,243 L225,243 L225,240 Z M45,75 L48,75 L48,78 L45,78 L45,75 Z M45,165 L48,165 L48,168 L45,168 L45,165 Z M45,255 L48,255 L48,258 L45,258 L45,255 Z M135,75 L138,75 L138,78 L135,78 L135,75 Z M135,165 L138,165 L138,168 L135,168 L135,165 Z M135,255 L138,255 L138,258 L135,258 L135,255 Z M225,75 L228,75 L228,78 L225,78 L225,75 Z M225,165 L228,165 L228,168 L225,168 L225,165 Z M225,255 L228,255 L228,258 L225,258 L225,255 Z M75,45 L78,45 L78,48 L75,48 L75,45 Z M75,135 L78,135 L78,138 L75,138 L75,135 Z M75,225 L78,225 L78,228 L75,228 L75,225 Z M165,45 L168,45 L168,48 L165,48 L165,45 Z M165,135 L168,135 L168,138 L165,138 L165,135 Z M165,225 L168,225 L168,228 L165,228 L165,225 Z M255,45 L258,45 L258,48 L255,48 L255,45 Z M255,135 L258,135 L258,138 L255,138 L255,135 Z M255,225 L258,225 L258,228 L255,228 L255,225 Z M75,60 L78,60 L78,63 L75,63 L75,60 Z M75,150 L78,150 L78,153 L75,153 L75,150 Z M75,240 L78,240 L78,243 L75,243 L75,240 Z M165,60 L168,60 L168,63 L165,63 L165,60 Z M165,150 L168,150 L168,153 L165,153 L165,150 Z M165,240 L168,240 L168,243 L165,243 L165,240 Z M255,60 L258,60 L258,63 L255,63 L255,60 Z M255,150 L258,150 L258,153 L255,153 L255,150 Z M255,240 L258,240 L258,243 L255,243 L255,240 Z M75,75 L78,75 L78,78 L75,78 L75,75 Z M75,165 L78,165 L78,168 L75,168 L75,165 Z M75,255 L78,255 L78,258 L75,258 L75,255 Z M165,75 L168,75 L168,78 L165,78 L165,75 Z M165,165 L168,165 L168,168 L165,168 L165,165 Z M165,255 L168,255 L168,258 L165,258 L165,255 Z M255,75 L258,75 L258,78 L255,78 L255,75 Z M255,165 L258,165 L258,168 L255,168 L255,165 Z M255,255 L258,255 L258,258 L255,258 L255,255 Z M45,15 L48,15 L48,18 L45,18 L45,15 Z M45,105 L48,105 L48,108 L45,108 L45,105 Z M45,195 L48,195 L48,198 L45,198 L45,195 Z M135,15 L138,15 L138,18 L135,18 L135,15 Z M135,105 L138,105 L138,108 L135,108 L135,105 Z M135,195 L138,195 L138,198 L135,198 L135,195 Z M225,15 L228,15 L228,18 L225,18 L225,15 Z M225,105 L228,105 L228,108 L225,108 L225,105 Z M225,195 L228,195 L228,198 L225,198 L225,195 Z M75,15 L78,15 L78,18 L75,18 L75,15 Z M75,105 L78,105 L78,108 L75,108 L75,105 Z M75,195 L78,195 L78,198 L75,198 L75,195 Z M165,15 L168,15 L168,18 L165,18 L165,15 Z M165,105 L168,105 L168,108 L165,108 L165,105 Z M165,195 L168,195 L168,198 L165,198 L165,195 Z M255,15 L258,15 L258,18 L255,18 L255,15 Z M255,105 L258,105 L258,108 L255,108 L255,105 Z M255,195 L258,195 L258,198 L255,198 L255,195 Z M15,30 L18,30 L18,33 L15,33 L15,30 Z M15,120 L18,120 L18,123 L15,123 L15,120 Z M15,210 L18,210 L18,213 L15,213 L15,210 Z M105,30 L108,30 L108,33 L105,33 L105,30 Z M105,120 L108,120 L108,123 L105,123 L105,120 Z M105,210 L108,210 L108,213 L105,213 L105,210 Z M195,30 L198,30 L198,33 L195,33 L195,30 Z M195,120 L198,120 L198,123 L195,123 L195,120 Z M195,210 L198,210 L198,213 L195,213 L195,210 Z M15,1.46246372e-15 L18,1.64616074e-15 L18,3 L15,3 L15,1.46246372e-15 Z M15,90 L18,90 L18,93 L15,93 L15,90 Z M15,180 L18,180 L18,183 L15,183 L15,180 Z M105,1.46246372e-15 L108,1.64616074e-15 L108,3 L105,3 L105,1.46246372e-15 Z M105,90 L108,90 L108,93 L105,93 L105,90 Z M105,180 L108,180 L108,183 L105,183 L105,180 Z M195,1.46246372e-15 L198,1.64616074e-15 L198,3 L195,3 L195,1.46246372e-15 Z M195,90 L198,90 L198,93 L195,93 L195,90 Z M195,180 L198,180 L198,183 L195,183 L195,180 Z M45,30 L48,30 L48,33 L45,33 L45,30 Z M45,120 L48,120 L48,123 L45,123 L45,120 Z M45,210 L48,210 L48,213 L45,213 L45,210 Z M135,30 L138,30 L138,33 L135,33 L135,30 Z M135,120 L138,120 L138,123 L135,123 L135,120 Z M135,210 L138,210 L138,213 L135,213 L135,210 Z M225,30 L228,30 L228,33 L225,33 L225,30 Z M225,120 L228,120 L228,123 L225,123 L225,120 Z M225,210 L228,210 L228,213 L225,213 L225,210 Z M75,30 L78,30 L78,33 L75,33 L75,30 Z M75,120 L78,120 L78,123 L75,123 L75,120 Z M75,210 L78,210 L78,213 L75,213 L75,210 Z M165,30 L168,30 L168,33 L165,33 L165,30 Z M165,120 L168,120 L168,123 L165,123 L165,120 Z M165,210 L168,210 L168,213 L165,213 L165,210 Z M255,30 L258,30 L258,33 L255,33 L255,30 Z M255,120 L258,120 L258,123 L255,123 L255,120 Z M255,210 L258,210 L258,213 L255,213 L255,210 Z M45,1.01837451e-15 L48,1.20207153e-15 L48,3 L45,3 L45,1.01837451e-15 Z M45,90 L48,90 L48,93 L45,93 L45,90 Z M45,180 L48,180 L48,183 L45,183 L45,180 Z M135,1.01837451e-15 L138,1.20207153e-15 L138,3 L135,3 L135,1.01837451e-15 Z M135,90 L138,90 L138,93 L135,93 L135,90 Z M135,180 L138,180 L138,183 L135,183 L135,180 Z M225,1.01837451e-15 L228,1.20207153e-15 L228,3 L225,3 L225,1.01837451e-15 Z M225,90 L228,90 L228,93 L225,93 L225,90 Z M225,180 L228,180 L228,183 L225,183 L225,180 Z M75,-1.20207153e-15 L78,-1.01837451e-15 L78,3 L75,3 L75,-1.20207153e-15 Z M75,90 L78,90 L78,93 L75,93 L75,90 Z M75,180 L78,180 L78,183 L75,183 L75,180 Z M165,-1.20207153e-15 L168,-1.01837451e-15 L168,3 L165,3 L165,-1.20207153e-15 Z M165,90 L168,90 L168,93 L165,93 L165,90 Z M165,180 L168,180 L168,183 L165,183 L165,180 Z M255,-1.20207153e-15 L258,-1.01837451e-15 L258,3 L255,3 L255,-1.20207153e-15 Z M255,90 L258,90 L258,93 L255,93 L255,90 Z M255,180 L258,180 L258,183 L255,183 L255,180 Z"/>
</svg>
