<svg xmlns="http://www.w3.org/2000/svg" width="79" height="70" viewBox="0 0 79 70">
  <defs>
    <linearGradient id="icon-messages-a" x1="50%" x2="50%" y1="191.572%" y2="-165.816%">
      <stop offset="0%" stop-color="#273A9B"/>
      <stop offset="56%" stop-color="#202F65"/>
      <stop offset="100%" stop-color="#021E2F"/>
    </linearGradient>
    <linearGradient id="icon-messages-b" x1="50%" x2="50%" y1="117.961%" y2="4.406%">
      <stop offset="0%" stop-color="#273A9B"/>
      <stop offset="56%" stop-color="#202F65"/>
      <stop offset="100%" stop-color="#021E2F"/>
    </linearGradient>
    <linearGradient id="icon-messages-c" x1="50%" x2="50%" y1="10.757%" y2="100%">
      <stop offset="0%" stop-color="#0058CC"/>
      <stop offset="100%" stop-color="#006EFF"/>
    </linearGradient>
    <linearGradient id="icon-messages-d" x1="50%" x2="50%" y1="74.333%" y2="-608%">
      <stop offset="0%" stop-color="#FFF"/>
      <stop offset="52%" stop-color="#CCE2E6"/>
      <stop offset="100%" stop-color="#8FA1BB"/>
    </linearGradient>
  </defs>
  <g fill="none">
    <path fill="url(#icon-messages-a)" d="M61.5071429,22.7027027 L6.20714286,22.7027027 C2.77903252,22.7027027 8.35310657e-16,25.4978979 0,28.9459459 L0,56.1891892 C8.35310657e-16,59.6372372 2.77903252,62.4324324 6.20714286,62.4324324 C7.45372844,62.4324324 8.46428571,63.4488671 8.46428571,64.7027027 L8.46428571,68.8648649 C8.46767449,69.2482189 8.68808858,69.5960765 9.03214212,69.761056 C9.37619565,69.9260355 9.78366219,69.8792573 10.0819048,69.6405405 L16.8345238,64.2108108 C18.2718705,63.0581672 20.0560173,62.4310847 21.8942857,62.4324324 L61.5071429,62.4324324 C63.1533795,62.4324324 64.7321906,61.7746641 65.8962557,60.6038288 C67.0603208,59.4329936 67.7142857,57.8450002 67.7142857,56.1891892 L67.7142857,28.9459459 C67.7142857,25.4978979 64.9352532,22.7027027 61.5071429,22.7027027 Z"/>
    <path fill="url(#icon-messages-b)" d="M11.2857143,68.6756757 L16.8157143,64.2297297 C18.255591,63.066236 20.047301,62.4321531 21.8942857,62.4324324 L61.5071429,62.4324324 C64.9352532,62.4324324 67.7142857,59.6372372 67.7142857,56.1891892 L67.7142857,28.9459459 C67.7072759,26.7410323 66.5410138,24.7043959 64.6483333,23.5918919 L11.2857143,23.5918919 L11.2857143,68.6756757 Z" opacity=".745"/>
    <path fill="url(#icon-messages-c)" d="M17.4928571,0 L72.7928571,0 C76.2209675,6.7213502e-15 79,2.79519521 79,6.24324324 L79,33.4864865 C79,36.9345345 76.2209675,39.7297297 72.7928571,39.7297297 C72.1942256,39.7297297 71.6201125,39.9689182 71.1968161,40.3946765 C70.7735197,40.8204348 70.5357143,41.3978869 70.5357143,42 L70.5357143,46.1621622 C70.5323255,46.5455162 70.3119114,46.8933738 69.9678579,47.0583533 C69.6238043,47.2233328 69.2163378,47.1765546 68.9180952,46.9378378 L62.1654762,41.5081081 C60.7281295,40.3554644 58.9439827,39.728382 57.1057143,39.7297297 L17.4928571,39.7297297 C14.0647468,39.7297297 11.2857143,36.9345345 11.2857143,33.4864865 L11.2857143,6.24324324 C11.2857143,2.79519521 14.0647468,0 17.4928571,0 Z"/>
    <path fill="#FFF" d="M61.5071429,22.7027027 L11.2857143,22.7027027 L11.2857143,33.4864865 C11.2857143,36.9345345 14.0647468,39.7297297 17.4928571,39.7297297 L57.1057143,39.7297297 C58.9462447,39.733752 60.7306321,40.367591 62.1654762,41.527027 L67.7142857,45.972973 L67.7142857,28.9459459 C67.7142857,25.4978979 64.9352532,22.7027027 61.5071429,22.7027027 Z" opacity=".078"/>
    <ellipse cx="31.036" cy="19.865" fill="url(#icon-messages-d)" rx="2.821" ry="2.838"/>
    <ellipse cx="45.143" cy="19.865" fill="url(#icon-messages-d)" rx="2.821" ry="2.838"/>
    <ellipse cx="59.25" cy="19.865" fill="url(#icon-messages-d)" rx="2.821" ry="2.838"/>
  </g>
</svg>
